<?xml version="1.0" encoding="UTF-8" standalone="no"?>
<!-- Created with Inkscape (http://www.inkscape.org/) -->

<svg
	width="512"
	height="512"
	viewBox="0 0 135.46667 135.46667"
	version="1.1"
	id="svg1"
	xmlns="http://www.w3.org/2000/svg"
	xmlns:svg="http://www.w3.org/2000/svg">
	<defs id="defs1" />
	<g id="layer1">
		<path
			style="fill:#000080;stroke-width:0.282017"
			d="M 5.306501,0.62230439 101.47237,0.09090777 125.87228,70.356052 24.382575,70.916865 -0.01732713,0.65172298 Z"
			id="path23" />
		<path
			style="fill:#000036;fill-opacity:1;stroke-width:0.282017"
			d="m 99.495684,0.40566193 1.872866,-0.20023198 24.3999,70.26514405 -7.1967,0.229649 L 94.171856,0.43508093 Z"
			id="path23-7" />
		<ellipse
			style="fill:#000000;fill-opacity:1;stroke-width:0.264583"
			id="path26-6"
			cx="74.42955"
			cy="54.083569"
			rx="7.3397198"
			ry="21.623062" />
		<ellipse
			style="fill:#000000;fill-opacity:1;stroke-width:0.264583"
			id="path26"
			cx="39.869553"
			cy="54.081467"
			rx="7.3397198"
			ry="21.623062" />
		<path
			style="fill:#000080;stroke-width:0.282017"
			d="M 15.457353,65.373696 111.62322,64.8423 136.02313,135.10744 34.533427,135.66826 10.133525,65.403115 Z"
			id="path23-2" />
		<path
			style="fill:#000034;fill-opacity:1;stroke-width:0.282017"
			d="m 37.992976,130.37618 96.165874,-0.53139 1.74646,5.69168 -101.489707,0.56082 -1.746455,-5.69169 z"
			id="path23-2-2" />
		<path
			style="fill:#000036;fill-opacity:1;stroke-width:0.282017"
			d="m 111.37573,71.044452 1.87287,-0.200232 22.77044,64.98545 -7.1967,0.22965 -22.77044,-64.985449 z"
			id="path23-7-6" />
		<path
			d="m 33.418603,65.251671 -12.46797,0.06925 a 7.3397198,21.623062 0 0 0 6.22649,10.430888 7.3397198,21.623062 0 0 0 6.24148,-10.500135 z"
			style="stroke-width:0.264583"
			id="path27" />
		<path
			d="m 55.468943,65.130232 a 7.3397198,21.623062 0 0 0 6.26835,10.623641 7.3397198,21.623062 0 0 0 6.28282,-10.693404 z"
			style="stroke-width:0.264583"
			id="path28" />
	</g>
</svg>
