<?xml version="1.0" encoding="UTF-8"?>
<svg width="512" height="512" version="1.1" viewBox="0 0 135.47 135.47" xmlns="http://www.w3.org/2000/svg">
<path d="m5.3065 0.6223 96.166-0.5314 24.4 70.265-101.49 0.56081-24.4-70.265z" fill="#000080" stroke-width=".28202"/>
<path d="m99.496 0.40566 1.8729-0.20023 24.4 70.265-7.1967 0.22965-24.4-70.265z" fill="#000036" stroke-width=".28202"/>
<ellipse cx="74.43" cy="54.084" rx="7.3397" ry="21.623" stroke-width=".26458"/>
<ellipse cx="39.87" cy="54.081" rx="7.3397" ry="21.623" stroke-width=".26458"/>
<path d="m15.457 65.374 96.166-0.5314 24.4 70.265-101.49 0.56082-24.4-70.265z" fill="#000080" stroke-width=".28202"/>
<path d="m37.993 130.38 96.166-0.53139 1.7465 5.6917-101.49 0.56082-1.7465-5.6917z" fill="#000034" stroke-width=".28202"/>
<path d="m111.38 71.044 1.8729-0.20023 22.77 64.985-7.1967 0.22965-22.77-64.985z" fill="#000036" stroke-width=".28202"/>
<path d="m33.419 65.252-12.468 0.06925a7.3397 21.623 0 0 0 6.2265 10.431 7.3397 21.623 0 0 0 6.2415-10.5z" stroke-width=".26458"/>
<path d="m55.469 65.13a7.3397 21.623 0 0 0 6.2684 10.624 7.3397 21.623 0 0 0 6.2828-10.693z" stroke-width=".26458"/>
</svg>
