<svg xmlns="http://www.w3.org/2000/svg" viewBox="0 0 180 180"><g fill="red"><path d="M139 155a11 11 0 0 1-3.3 4.9 11 11 0 0 1-8 2.6 11 11 0 0 1-10.2-11.4h-16.8v.5a11 11 0 0 1-11.1 11 11 11 0 0 1-11-11v-.5H62a11 11 0 0 1-2.7 7.7 11 11 0 0 1-15.6 1 11 11 0 0 1-3.8-7.2l1 12.6h97.3z"/><path stroke="red" stroke-linecap="round" stroke-linejoin="round" stroke-width="1.3" d="M100.1 61.5a11 11 0 0 1 .6 3v86.6h16.8a11 11 0 0 1 0-.3l6.3-87a11 11 0 0 1 .5-2.3z"/><path stroke="red" stroke-linecap="round" stroke-linejoin="round" stroke-width="1.3" d="M146.7 33.2H32.4a14.1 14.1 0 0 0-14 15.2l8.5 117.8a14.1 14.1 0 0 0 14 13.1h97.4a14.1 14.1 0 0 0 14-13l8.5-118a14.1 14.1 0 0 0-14-15Zm0 14.2-1 15a11 11 0 0 1 .2 3l-6.3 87a11 11 0 0 1-.6 2.7l-.7 10.1H41l-1-12.6a11 11 0 0 1 0-.2l-6.3-87a11 11 0 0 1 0-.3l-1.2-17.7Z"/><path stroke="red" stroke-linecap="round" stroke-linejoin="round" stroke-width="1.3" d="M146.7 47.4H32.5L33.7 65A11 11 0 0 1 44 53.6a11 11 0 0 1 11.3 7.9H79a11 11 0 0 1 10.6-7.9 11 11 0 0 1 10.5 7.9h24.2a11 11 0 0 1 11.3-7.9 11 11 0 0 1 7.5 3.8 11 11 0 0 1 2.5 5z"/><path stroke="red" stroke-linecap="round" stroke-linejoin="round" stroke-width="1.3" d="M55.3 61.5a11 11 0 0 1 .5 2.2l6.3 87.1a11 11 0 0 1 0 .3h16.4V64.5a11 11 0 0 1 .5-3z"/><path stroke="red" stroke-linecap="round" stroke-linejoin="round" stroke-width="11.7" d="M19.9 15.6h140.4v5.6H19.9z"/><path stroke="red" stroke-linecap="round" stroke-linejoin="round" stroke-width="14.2" d="M76 7.1h27.6v7.5H76z"/></g></svg>