<svg xmlns="http://www.w3.org/2000/svg" viewBox="0 0 180 180"><path fill="red" stroke="red" stroke-linecap="round" stroke-linejoin="round" stroke-width="4" d="m152 14 21 37V3Zm21 94-46 1-5 32 51 30z"/><path fill="red" stroke="red" stroke-linecap="round" stroke-linejoin="round" stroke-width="3.8" d="m122 141 5-32h-23l-4 22 8 2z"/><path fill="red" stroke="red" stroke-linecap="round" stroke-linejoin="round" stroke-width="3.8" d="m122 141-14-8-8-2-3 21-62-11 3-21-22-4-7 44 107 17z"/><path fill="red" stroke="red" stroke-linecap="round" stroke-linejoin="round" stroke-width="3.8" d="m38 120 5-30-21-3h-2l-4 29z"/><path fill="red" stroke="red" stroke-linecap="round" stroke-linejoin="round" stroke-width="4" d="m100 131 4-22c-28-1-52-3-53-6-2-3 12-29 28-57L11 60v55l5 1 4-29h2l21 3-5 30z"/><path fill="red" d="M128 0c-5 0-56 86-54 91 3 4 103 6 106 1 2-4-47-91-52-92Zm-6 22h11v43h-11Zm6 51a7 7 0 0 1 7 7 7 7 0 0 1-7 6 7 7 0 0 1-7-6 7 7 0 0 1 7-7z"/></svg>