<svg width="18" height="18" viewBox="0 0 18 18" fill="none" xmlns="http://www.w3.org/2000/svg">
<path d="M16 11V13H12.5556L12.048 17.5681L10.3864 14.5773L10.5617 13H9.51014L8.39902 11H10.7839L11.2283 7H7.22222L7.04799 8.56813L5.06569 5H5.45056L6.00612 0H8L7.44444 5H11.4506L12.0061 0H14L13.4444 5H17V7H13.2222L12.7778 11H16Z" fill="#FF0000"/>
<path d="M4.9343 5H2V7H3.82319L4.9343 5Z" fill="#FF0000"/>
<path fill-rule="evenodd" clip-rule="evenodd" d="M5 9L10 18H6V16H4V18H0L5 9ZM6 11H4V15H6V11Z" fill="#FF0000"/>
</svg>
