<svg width="18" height="18" viewBox="0 0 18 18" fill="none" xmlns="http://www.w3.org/2000/svg">
<g clip-path="url(#clip0_1_167)">
<path fill-rule="evenodd" clip-rule="evenodd" d="M9 18C13.9706 18 18 13.9706 18 9C18 4.02944 13.9706 0 9 0C4.02944 0 0 4.02944 0 9C0 13.9706 4.02944 18 9 18ZM8 4V10H6V4H8ZM12 4V10H10V4H12ZM14 11L15 13C15 13 12 15 9 15C6 15 3 13 3 13L4 11C4 11 6 13 9 13C12 13 14 11 14 11Z" fill="#FF0000"/>
</g>
<defs>
<clipPath id="clip0_1_167">
<rect width="18" height="18" fill="white"/>
</clipPath>
</defs>
</svg>
