<svg width="18" height="18" viewBox="0 0 18 18" fill="none" xmlns="http://www.w3.org/2000/svg">
<path fill-rule="evenodd" clip-rule="evenodd" d="M4 1C1.79086 1 0 2.79086 0 5V13C0 15.2091 1.79086 17 4 17H14C16.2091 17 18 15.2091 18 13V5C18 2.79086 16.2091 1 14 1H4ZM4 9C4 12 4.5 12 5 11.9993V9H7V14H5C4 14 2 14 2 9C2 6 2 4 4.5 4C7 4 7 6 7 7H5C5 6.38649 5 6.14937 4.88454 6.05773C4.8118 6 4.69324 6 4.5 6C4.38377 6 4.29456 6 4.22609 6.03768C4 6.1621 4 6.69736 4 9ZM10 4H8V14H10V4ZM11 14H13V10H16V8H13V6H16V4L11 4V14Z" fill="#FF0000"/>
</svg>
