<svg width="512" height="512" xmlns="http://www.w3.org/2000/svg"><path d="m400 159-26 1 1 49h25zM112 340V177a85 85 0 0 0-35 58c-8 43 8 89 35 105zM293 209v94h10v-94zM222 277a24 16 90 0 1 2 18l-2 8h31v-94h-44v45a20 20 0 0 1 14 19 20 20 0 0 1-1 4z" style="baseline-shift:baseline;display:inline;overflow:visible;vector-effect:none;fill:red;stroke-linecap:round;stroke-linejoin:round;enable-background:accumulate;stop-color:#000;stop-opacity:1"/><path d="M112 112v13c15-5 31-6 47 1l21 12a24 16 90 0 1 6 34 24 16 90 0 1-22 9l-14-8c-13-5-26-4-38 4v163l7 4c28 11 58-11 70-50l-48 2a20 20 0 0 1-21-19 20 20 0 0 1 19-21l63-2a20 20 0 0 1 7 0v-45h44v-70a20 20 0 0 1 20-20 20 20 0 0 1 20 20v70h10v94h-10l-1 67a20 20 0 0 1-20 20 20 20 0 0 1-20-20l1-67h-31c-16 66-64 105-110 89v8h288V249h-25l1 122a20 20 0 0 1-20 20 20 20 0 0 1-20-20l-2-230a20 20 0 0 1 20-20 20 20 0 0 1 1 0 20 20 0 0 1 3-1l42-1v-7z" style="baseline-shift:baseline;display:inline;overflow:visible;vector-effect:none;fill:red;stroke-linecap:round;stroke-linejoin:round;enable-background:accumulate;stop-color:#000;stop-opacity:1"/><path d="M112 16a96 96 0 0 0-96 96v288a96 96 0 0 0 96 96h288a96 96 0 0 0 96-96V112a96 96 0 0 0-96-96Zm0 96h288v7l45-1a20 20 0 0 1 21 20 20 20 0 0 1-20 20l-46 1v50h52a20 20 0 0 1 20 20 20 20 0 0 1-20 20h-52v151H112v-8l-2-1c-49-20-78-97-65-169 9-49 36-85 67-97Z" style="baseline-shift:baseline;display:inline;overflow:visible;vector-effect:none;fill:red;stroke-linecap:round;stroke-linejoin:round;enable-background:accumulate;stop-color:#000;stop-opacity:1"/></svg>