<svg width="48" height="48" xmlns="http://www.w3.org/2000/svg"><path d="m26.2 26.5-.7.6h.7z" style="baseline-shift:baseline;display:inline;overflow:visible;vector-effect:none;stroke-linecap:round;stroke-linejoin:round;enable-background:accumulate;stop-color:#000;stop-opacity:1"/><path d="m31 22.5-4.8 4v.6h-.7l-5.4 4.4a4.8 4.8 0 0 0 1.7.3h4.4a4.8 4.8 0 0 0 4.8-4.7ZM21.8 14.6l4.4-3.7V6.3h-4.4z" style="baseline-shift:baseline;display:inline;overflow:visible;vector-effect:none;stroke-linecap:round;stroke-linejoin:round;enable-background:accumulate;stop-color:#000;stop-opacity:1"/><path d="m17 18.5 4.8-4V6.4h4.4v4.6L31 7v-.6a4.8 4.8 0 0 0-4.8-4.8h-4.4A4.8 4.8 0 0 0 17 6.3Z" style="baseline-shift:baseline;display:inline;overflow:visible;vector-effect:none;stroke-linecap:round;stroke-linejoin:round;enable-background:accumulate;stop-color:#000;stop-opacity:1"/><path d="m19.6 32-5.1 4.2a20 20 0 0 0 24.8-4.4 3 3 0 0 0-.3-4.2 3 3 0 0 0-4.2.4 14 14 0 0 1-15.2 4z" style="baseline-shift:baseline;display:inline;overflow:visible;opacity:1;vector-effect:none;fill-rule:evenodd;stroke-linecap:round;enable-background:accumulate;stop-color:#000;stop-opacity:1"/><g style="opacity:1"><path style="baseline-shift:baseline;display:inline;overflow:visible;vector-effect:none;fill:#1a1a1a;stroke-linecap:round;stroke-linejoin:round;enable-background:accumulate;stop-color:#000;stop-opacity:1" d="M22.4 36.6h3V43h-3z"/><path style="baseline-shift:baseline;display:inline;overflow:visible;vector-effect:none;stroke-linecap:round;stroke-linejoin:round;enable-background:accumulate;stop-color:#000;stop-opacity:1" d="M22.4 34.9a1.7 1.7 0 0 0-1.7 1.7V43a1.7 1.7 0 0 0 1.7 1.7h3a1.7 1.7 0 0 0 1.8-1.7v-6.5a1.7 1.7 0 0 0-1.7-1.7z"/></g><g style="opacity:1"><path style="baseline-shift:baseline;display:inline;overflow:visible;vector-effect:none;fill:#1a1a1a;stroke-linecap:round;stroke-linejoin:round;enable-background:accumulate;stop-color:#000;stop-opacity:1" d="M18 44.1h12v.4H18Z"/><path style="baseline-shift:baseline;display:inline;overflow:visible;vector-effect:none;stroke-linecap:round;stroke-linejoin:round;enable-background:accumulate;stop-color:#000;stop-opacity:1" d="M18 41.1a3 3 0 0 0-3 3v.4a3 3 0 0 0 3 3h12a3 3 0 0 0 3-3V44a3 3 0 0 0-3-3z"/></g><path style="fill:#1a1a1a;stroke:#000;stroke-width:6;stroke-linecap:round;stroke-linejoin:round;stroke-dasharray:none" d="m3.7 37.3 38.8-32"/></svg>