<svg width="512" height="512" xmlns="http://www.w3.org/2000/svg"><path d="M83 43v101a35 35 0 0 1 45 4l64 63L317 65a35 35 0 0 1 24-13 35 35 0 0 1 10 1V43z" style="baseline-shift:baseline;display:inline;overflow:visible;vector-effect:none;fill:#fe0000;stroke-width:1.17942;stroke-linecap:round;stroke-linejoin:round;enable-background:accumulate;stop-color:#000;stop-opacity:1"/><path d="M92 3C69 3 50 22 50 46v326c0 23 19 42 42 42h243c23 0 42-19 42-42V46c0-24-19-43-42-43Zm0 43h243v9a32 32 0 0 1 14 7 32 32 0 0 1 4 45l-18 21v244H92V190l-4-4a32 32 0 0 1 0-45 32 32 0 0 1 4-4z" style="baseline-shift:baseline;display:inline;overflow:visible;vector-effect:none;fill:#fe0000;stroke-width:1.06583;stroke-linecap:round;stroke-linejoin:round;enable-background:accumulate;stop-color:#000;stop-opacity:1"/><path d="M342 120 218 265a34 34 0 0 1-49 2l-83-81v192h256Z" style="baseline-shift:baseline;display:inline;overflow:visible;vector-effect:none;fill:#fe0000;stroke-width:1.12485;stroke-linecap:round;stroke-linejoin:round;enable-background:accumulate;stop-color:#000;stop-opacity:1"/><path style="fill:none;stroke:#fe0000;stroke-width:46.1123;stroke-linecap:round;stroke-linejoin:round;stroke-dasharray:none" d="M435 77v400l-359 3-2-126"/></svg>