<svg width="18" height="18" viewBox="0 0 18 18" fill="none" xmlns="http://www.w3.org/2000/svg">
<g clip-path="url(#clip0_9_379)">
<path fill-rule="evenodd" clip-rule="evenodd" d="M2 0C0.895431 0 0 0.89543 0 2V14.3944C0 14.7893 0.116876 15.1753 0.335899 15.5038L1.40627 17.1094C1.7772 17.6658 2.40166 18 3.07037 18H16C17.1046 18 18 17.1046 18 16V2.5C18 2.22386 17.7761 2 17.5 2C17.2239 2 17 2.22386 17 2.5V15C17 16.1046 16.1046 17 15 17H4C3.37049 17 2.77771 16.7036 2.4 16.2L1.5 15H13C14.1046 15 15 14.1046 15 13V2C15 0.895431 14.1046 0 13 0H2ZM12.7071 4.70711L11.2929 3.29289L6 8.58579L3.70711 6.29289L2.29289 7.70711L6 11.4142L12.7071 4.70711Z" fill="#FF0000"/>
</g>
<defs>
<clipPath id="clip0_9_379">
<rect width="18" height="18" fill="white"/>
</clipPath>
</defs>
</svg>
