<svg width="48" height="48" xmlns="http://www.w3.org/2000/svg"><g style="opacity:1"><path d="M6.9 1.8a4 4 0 0 0-4 4v21.6a4 4 0 0 0 4 4h33.9a4 4 0 0 0 4-4V5.8a4 4 0 0 0-4-4zm5 3a2 2 0 0 1 1.1.5L23.2 14l10.1-8.7a2 2 0 0 1 1.5-.4 2 2 0 0 1 1.3.7 2 2 0 0 1-.2 2.8l-9.6 8.2 9.6 8.3a2 2 0 0 1 .2 2.8 2 2 0 0 1-2.8.2l-10.1-8.6L13 27.9a2 2 0 0 1-2.9-.2 2 2 0 0 1 .3-2.8l9.6-8.3-9.7-8.2a2 2 0 0 1-.2-2.8 2 2 0 0 1 1.4-.7 2 2 0 0 1 .2 0z" style="baseline-shift:baseline;display:inline;overflow:visible;vector-effect:none;stroke-linecap:round;stroke-linejoin:round;enable-background:accumulate;stop-color:#000;stop-opacity:1"/></g><path style="fill:#000;stroke:#000;stroke-width:4;stroke-linecap:round;stroke-linejoin:round;stroke-dasharray:none" d="M21.8 28.2h3.3v10.7h-3.3z"/><path style="fill:#000;stroke:#000;stroke-width:6;stroke-linecap:round;stroke-linejoin:round;stroke-dasharray:none" d="M11.9 41.7h23.6v2.2H11.9z"/></svg>