<svg xmlns="http://www.w3.org/2000/svg" viewBox="0 0 512 512"><g fill="red" stroke="red" stroke-linecap="round" stroke-linejoin="round"><path stroke="none" d="m94 356 52-51c-18-16-36-34-54-54 28-28 56-54 82-74 33-25 62-38 84-38 13 0 29 4 45 13l54-53c-30-19-63-33-99-33-48 0-89 23-128 53-39 29-75 66-111 102a36 36 0 0 0-10 32 36 36 0 0 0 10 28c24 26 49 52 75 75zm327-207-53 51 53 52c-29 28-57 55-83 74-32 25-61 38-84 38-12 0-27-4-42-11l-54 53c29 18 61 31 96 31 47 0 89-23 128-53 39-29 76-66 112-103a36 36 0 0 0 9-32 36 36 0 0 0-10-27l-72-73z" overflow="visible"/><path stroke="none" d="m329 239-86 84 14 1a74 74 0 0 0 72-85zm-144 28 89-87-17-2a74 74 0 0 0-72 89z" overflow="visible"/><path stroke-width="34.9" d="M450 64 63 442v0"/></g></svg>