<svg width="18" height="18" viewBox="0 0 18 18" fill="none" xmlns="http://www.w3.org/2000/svg">
<g clip-path="url(#clip0_7_104)">
<path d="M8.99999 16V2L2 6H0V12H2L8.99999 16Z" fill="#FF0000"/>
<path d="M11.5 5L11 7C11 7 12 7.5 12 9C12 10.5 11 11 11 11L11.5 13C11.5 13 14 12 14 9C14 6 11.5 5 11.5 5Z" fill="#FF0000"/>
<path d="M14.5 3L14 5C14 5 16 6 16 9C16 12 14 13 14 13L14.5 15C14.5 15 18 14 18 9C18 4 14.5 3 14.5 3Z" fill="#FF0000"/>
</g>
<defs>
<clipPath id="clip0_7_104">
<rect width="18" height="18" fill="white"/>
</clipPath>
</defs>
</svg>
