<svg xmlns="http://www.w3.org/2000/svg" viewBox="0 0 180 180"><path fill="red" d="M5 51h21l28-26h17v130H54l-28-25-21 1Z"/><path fill="red" fill-rule="evenodd" d="m131 112-27-1c-4 6-8 10-14 14a13 13 0 0 0-4 17 13 13 0 0 0 17 4 68 68 0 0 0 28-34zm41-1-26 1a74 74 0 0 1-36 47 13 13 0 0 0-4 17 13 13 0 0 0 17 5c15-9 28-22 38-38 6-10 10-21 11-32z"/><path fill="red" d="M125 0c-5 0-59 90-56 95s108 6 110 1c3-5-48-96-54-96Zm-6 23h12v45h-12zm6 53a7 7 0 0 1 7 7 7 7 0 0 1-7 7 7 7 0 0 1-7-7 7 7 0 0 1 7-7z"/></svg>