<svg width="18" height="18" viewBox="0 0 18 18" fill="none" xmlns="http://www.w3.org/2000/svg">
<g clip-path="url(#clip0_9_301)">
<path d="M8.99999 12.0817V2L2 6H0V12H1.04541L5 4.88175L8.99999 12.0817Z" fill="#FF0000"/>
<path d="M11 7C11 7 12 7.5 12 9C12 10.5 11 11 11 11L11.5 13C11.5 13 14 12 14 9C14 6 11.5 5 11.5 5L11 7Z" fill="#FF0000"/>
<path d="M14 5L14.5 3C14.5 3 18 4 18 9C18 14 14.5 15 14.5 15L14 13C14 13 16 12 16 9C16 6 14 5 14 5Z" fill="#FF0000"/>
<path fill-rule="evenodd" clip-rule="evenodd" d="M5 9L10 18H6V16H4V18H0L5 9ZM6 11H4V15H6V11Z" fill="#FF0000"/>
</g>
<defs>
<clipPath id="clip0_9_301">
<rect width="18" height="18" fill="white"/>
</clipPath>
</defs>
</svg>
